<svg width="201" height="182" viewBox="0 0 201 182" fill="none" xmlns="http://www.w3.org/2000/svg">
<path d="M163.652 157.675C163.652 157.675 144.439 126.835 148.874 118.97C153.31 111.104 164.636 125.246 164.636 125.246C164.636 125.246 154.785 96.4824 160.205 83.9162C165.624 71.35 174.983 83.9162 175.475 92.8096C175.967 101.703 173.503 116.869 173.503 116.869C173.503 116.869 177.447 85.5051 186.805 94.9019C196.164 104.299 174.983 135.696 174.983 135.696C174.983 135.696 189.269 128.375 188.773 137.788C188.276 147.201 171.535 155.57 171.535 155.57" fill="#92E3A9"/>
<path d="M163.815 151.922C163.815 151.922 146.036 136.752 154.7 129.955C163.363 123.158 167.921 137.276 167.921 137.276C167.921 137.276 158.346 93.866 173.846 92.2937C189.346 90.7213 177.947 129.951 177.947 129.951C177.947 129.951 191.169 113.217 190.257 126.835C189.346 140.454 169.744 151.943 169.744 151.943" stroke="#263238" stroke-miterlimit="10"/>
<path d="M172.546 149.161L160.534 137.255" stroke="#263238" stroke-miterlimit="10"/>
<path d="M170.046 150.078L173.299 115.276" stroke="#263238" stroke-miterlimit="10"/>
<path d="M169.545 147.556L180.307 134.507" stroke="#263238" stroke-miterlimit="10"/>
<path d="M185.113 145.13H151.879L155.205 180.979H181.787L185.113 145.13Z" fill="#263238"/>
<path d="M58.2433 103.556C53.9223 101.617 49.4558 99.962 44.8777 98.6036C38.2806 96.7466 30.4967 98.4468 30.3253 100.457C30.1538 102.466 31.327 101.546 32.8657 103.725C34.4044 105.904 33.7095 110.997 35.9116 115.639C38.1136 120.282 44.7062 122.601 44.7062 122.601L58.2433 103.556Z" fill="#92E3A9" stroke="#263238" stroke-linecap="round" stroke-linejoin="round"/>
<path opacity="0.3" d="M53.8434 108.046C53.8434 108.046 43.6906 102.165 37.7704 100.151C31.8501 98.1373 31.5117 101.08 31.5117 101.08C32.4857 101.407 33.3215 102.007 33.8995 102.795C34.4774 103.583 34.7678 104.518 34.729 105.467C34.729 108.941 36.6287 116.139 41.2449 117.624C45.8611 119.11 53.8434 108.046 53.8434 108.046Z" fill="black"/>
<path d="M126.288 114.617C128.942 113.695 130.215 110.835 129.133 108.229C128.051 105.624 125.022 104.259 122.369 105.18C119.715 106.102 118.441 108.962 119.524 111.568C120.606 114.173 123.634 115.539 126.288 114.617Z" fill="#92E3A9" stroke="#263238" stroke-linecap="round" stroke-linejoin="round"/>
<path d="M53.541 163.903L59.2356 179.527C59.3901 179.95 59.6863 180.318 60.0824 180.579C60.4784 180.84 60.9542 180.98 61.4422 180.979H70.318C70.7721 180.98 71.2164 180.859 71.5958 180.631C71.9752 180.402 72.273 180.077 72.4524 179.696L76.4232 171.269" fill="#92E3A9"/>
<mask id="mask0_46_488" style="mask-type:luminance" maskUnits="userSpaceOnUse" x="53" y="163" width="24" height="18">
<path d="M53.541 163.903L59.2356 179.527C59.3901 179.95 59.6863 180.318 60.0824 180.579C60.4784 180.84 60.9542 180.98 61.4422 180.979H70.318C70.7721 180.98 71.2164 180.859 71.5958 180.631C71.9752 180.402 72.273 180.077 72.4524 179.696L76.4232 171.269" fill="white"/>
</mask>
<g mask="url(#mask0_46_488)">
<path opacity="0.3" d="M56.3975 163.903L61.1084 179.527C61.1975 179.919 61.4251 180.274 61.7561 180.536C62.0871 180.799 62.5032 180.954 62.9404 180.979H70.3001C70.7043 180.96 71.0919 180.827 71.409 180.596C71.7261 180.366 71.9568 180.052 72.0689 179.696L75.363 171.269" fill="black"/>
</g>
<path d="M53.541 163.903L59.2356 179.527C59.3901 179.95 59.6863 180.318 60.0824 180.579C60.4784 180.84 60.9542 180.98 61.4422 180.979H70.318C70.7721 180.98 71.2164 180.859 71.5958 180.631C71.9752 180.402 72.273 180.077 72.4524 179.696L76.4232 171.269" stroke="#263238" stroke-linecap="round" stroke-linejoin="round"/>
<path d="M96.3721 163.903L90.682 179.527C90.5276 179.95 90.2313 180.318 89.8353 180.579C89.4392 180.84 88.9634 180.98 88.4755 180.979H79.6087C79.1546 180.98 78.7103 180.859 78.3309 180.631C77.9515 180.402 77.6536 180.077 77.4743 179.696L73.5034 171.269" fill="#263238"/>
<path d="M96.3721 163.903L90.682 179.527C90.5276 179.95 90.2313 180.318 89.8353 180.579C89.4392 180.84 88.9634 180.98 88.4755 180.979H79.6087C79.1546 180.98 78.7103 180.859 78.3309 180.631C77.9515 180.402 77.6536 180.077 77.4743 179.696L73.5034 171.269" stroke="#263238" stroke-linecap="round" stroke-linejoin="round"/>
<path d="M115.23 163.903L109.536 179.527C109.381 179.95 109.085 180.318 108.689 180.579C108.293 180.84 107.817 180.98 107.329 180.979H98.4534C97.9993 180.98 97.555 180.859 97.1756 180.631C96.7962 180.402 96.4984 180.077 96.319 179.696L92.3481 171.269" fill="#92E3A9"/>
<mask id="mask1_46_488" style="mask-type:luminance" maskUnits="userSpaceOnUse" x="92" y="163" width="24" height="18">
<path d="M115.23 163.903L109.536 179.527C109.381 179.95 109.085 180.318 108.689 180.579C108.293 180.84 107.817 180.98 107.329 180.979H98.4534C97.9993 180.98 97.555 180.859 97.1756 180.631C96.7962 180.402 96.4984 180.077 96.319 179.696L92.3481 171.269" fill="white"/>
</mask>
<g mask="url(#mask1_46_488)">
<path opacity="0.3" d="M111.196 163.903L107.302 179.527C107.085 180.393 106.48 180.979 105.795 180.979H99.7254C99.0937 180.979 98.5206 180.476 98.2679 179.696L94.4956 171.442" fill="black"/>
</g>
<path d="M115.23 163.903L109.536 179.527C109.381 179.95 109.085 180.318 108.689 180.579C108.293 180.84 107.817 180.98 107.329 180.979H98.4534C97.9993 180.98 97.555 180.859 97.1756 180.631C96.7962 180.402 96.4984 180.077 96.319 179.696L92.3481 171.269" stroke="#263238" stroke-linecap="round" stroke-linejoin="round"/>
<path d="M84.7986 174.182C111.756 174.182 133.609 156.057 133.609 133.698C133.609 111.339 111.756 93.2141 84.7986 93.2141C57.8414 93.2141 35.9883 111.339 35.9883 133.698C35.9883 156.057 57.8414 174.182 84.7986 174.182Z" fill="#92E3A9"/>
<mask id="mask2_46_488" style="mask-type:luminance" maskUnits="userSpaceOnUse" x="35" y="93" width="99" height="82">
<path d="M84.7986 174.182C111.756 174.182 133.609 156.057 133.609 133.698C133.609 111.339 111.756 93.2141 84.7986 93.2141C57.8414 93.2141 35.9883 111.339 35.9883 133.698C35.9883 156.057 57.8414 174.182 84.7986 174.182Z" fill="white"/>
</mask>
<g mask="url(#mask2_46_488)">
<path opacity="0.3" d="M118.416 106.036C121.278 111.228 122.769 116.96 122.77 122.774C122.77 145.134 100.917 163.259 73.9597 163.259C63.928 163.305 54.0954 160.7 45.6445 155.756C54.1549 166.201 68.5629 173.089 84.9022 173.089C111.074 173.089 132.282 155.504 132.282 133.81C132.255 122.952 126.957 113.142 118.416 106.036Z" fill="black"/>
</g>
<path d="M84.7986 174.182C111.756 174.182 133.609 156.057 133.609 133.698C133.609 111.339 111.756 93.2141 84.7986 93.2141C57.8414 93.2141 35.9883 111.339 35.9883 133.698C35.9883 156.057 57.8414 174.182 84.7986 174.182Z" stroke="#263238" stroke-linecap="round" stroke-linejoin="round"/>
<path d="M129.502 137.33C128.437 145.484 124.327 152.884 118.136 158.727" stroke="#92E3A9" stroke-width="2" stroke-linecap="round" stroke-linejoin="round"/>
<path d="M128.695 124.772C129.415 127.503 129.778 130.303 129.778 133.112" stroke="#92E3A9" stroke-width="2" stroke-linecap="round" stroke-linejoin="round"/>
<path d="M72.6963 95.7396C76.7181 94.8797 80.8351 94.4477 84.9654 94.4521C87.6097 94.4516 90.2505 94.6281 92.8666 94.9803" stroke="#263238" stroke-width="4" stroke-linecap="round" stroke-linejoin="round"/>
<path d="M94.3737 124C94.3737 124 99.1117 121.058 99.2832 115.643C99.4547 110.229 91.6663 102.338 85.4076 99.0866C79.149 95.8346 74.578 96.4578 74.411 98.777C74.244 101.096 72.042 103.729 71.1982 108.215C70.3544 112.701 70.0114 119.358 76.613 121.524" fill="#92E3A9"/>
<path d="M94.3737 124C94.3737 124 99.1117 121.058 99.2832 115.643C99.4547 110.229 91.6663 102.338 85.4077 99.0866C79.149 95.8346 74.578 96.4578 74.411 98.777C74.244 101.096 72.042 103.729 71.1982 108.215C70.3544 112.701 70.0114 119.358 76.613 121.524" stroke="#263238" stroke-linecap="round" stroke-linejoin="round"/>
<path opacity="0.3" d="M84.1802 122.263L85.1503 122.395C89.3107 122.944 90.7727 120.459 90.6509 116.729C90.484 111.467 82.8716 100.325 79.6543 98.777C76.437 97.2294 75.4262 99.396 75.4262 99.396C75.4262 99.396 75.8774 99.6725 74.2936 104.48C73.5626 106.7 70.8416 114.442 73.5355 117.876C75.918 120.909 80.3447 121.739 84.1802 122.263Z" fill="black"/>
<path opacity="0.3" d="M97.6585 116.931H97.5953C97.5362 116.924 97.4793 116.906 97.4278 116.879C97.3762 116.851 97.3311 116.815 97.295 116.772C97.259 116.728 97.2326 116.679 97.2176 116.626C97.2025 116.573 97.199 116.519 97.2072 116.465C97.2561 116.147 97.2847 115.828 97.293 115.507C97.3832 112.618 94.8067 108.471 90.5695 104.645C90.5272 104.607 90.4935 104.562 90.4703 104.512C90.4471 104.461 90.435 104.408 90.4346 104.353C90.4342 104.299 90.4455 104.245 90.4679 104.194C90.4902 104.144 90.5233 104.098 90.565 104.059C90.6068 104.021 90.6565 103.99 90.7113 103.969C90.7661 103.947 90.825 103.936 90.8845 103.936C90.944 103.936 91.003 103.946 91.0581 103.966C91.1132 103.987 91.1634 104.017 91.2058 104.055C95.6821 108.1 98.2947 112.387 98.1955 115.528C98.1857 115.878 98.1556 116.228 98.1052 116.576C98.09 116.674 98.0364 116.765 97.9543 116.83C97.8723 116.895 97.7672 116.931 97.6585 116.931Z" fill="black"/>
<path opacity="0.3" d="M95.2311 121.908C95.1457 121.908 95.062 121.886 94.9897 121.845C94.9173 121.803 94.8594 121.744 94.8225 121.673C94.7857 121.603 94.7714 121.524 94.7814 121.447C94.7915 121.369 94.8253 121.296 94.8791 121.235C95.6228 120.402 96.2168 119.466 96.639 118.462C96.6814 118.36 96.7666 118.277 96.8758 118.232C96.985 118.187 97.1092 118.184 97.221 118.223C97.3329 118.261 97.4234 118.339 97.4725 118.439C97.5215 118.539 97.5253 118.653 97.4828 118.755C97.0269 119.841 96.384 120.854 95.5785 121.755C95.5366 121.803 95.4836 121.841 95.4235 121.867C95.3635 121.894 95.2977 121.907 95.2311 121.908Z" fill="black"/>
<path opacity="0.3" d="M62.3713 141.531C63.7058 136.64 59.0542 131.366 51.9816 129.752C44.909 128.138 38.0937 130.795 36.7592 135.687C35.4246 140.578 40.0762 145.852 47.1488 147.466C54.2214 149.08 61.0368 146.423 62.3713 141.531Z" fill="black"/>
<path d="M61.7361 140.643C63.0706 135.751 58.419 130.478 51.3464 128.864C44.2738 127.25 37.4585 129.907 36.1239 134.799C34.7894 139.69 39.441 144.964 46.5136 146.578C53.5862 148.192 60.4015 145.535 61.7361 140.643Z" fill="#92E3A9" stroke="#263238" stroke-linecap="round" stroke-linejoin="round"/>
<path d="M44.945 136.244C45.0262 137.35 44.5614 138.283 43.9116 138.308C43.2618 138.333 42.6617 137.483 42.5579 136.377C42.4541 135.271 42.9415 134.334 43.5958 134.313C44.2501 134.292 44.8637 135.134 44.945 136.244Z" stroke="#263238" stroke-linecap="round" stroke-linejoin="round"/>
<path d="M53.8888 138.296C53.97 139.406 53.5053 140.334 52.8555 140.359C52.2057 140.384 51.6055 139.534 51.5018 138.423C51.398 137.313 51.8853 136.385 52.5396 136.36C53.1939 136.335 53.794 137.185 53.8888 138.296Z" stroke="#263238" stroke-linecap="round" stroke-linejoin="round"/>
<path d="M68.6488 141.164C68.5536 141.958 68.3505 142.739 68.0442 143.487C65.4541 149.888 56.0774 152.657 46.8135 149.9" stroke="#263238" stroke-width="3" stroke-linecap="round" stroke-linejoin="round"/>
<path d="M67.1372 140.557H70.0116" stroke="#263238" stroke-width="3" stroke-linecap="round" stroke-linejoin="round"/>
<path d="M48.8261 123.422C48.5102 124.623 47.7025 125.486 47.0211 125.329C46.3398 125.172 46.042 124.091 46.3623 122.878C46.6827 121.664 47.4859 120.814 48.1673 120.967C48.8487 121.12 49.1465 122.217 48.8261 123.422Z" fill="#263238" stroke="#263238" stroke-linecap="round" stroke-linejoin="round"/>
<path d="M57.1474 125.082C57.4651 123.876 57.1707 122.777 56.4899 122.627C55.8091 122.477 54.9997 123.333 54.6821 124.538C54.3644 125.744 54.6588 126.842 55.3396 126.992C56.0204 127.143 56.8298 126.287 57.1474 125.082Z" fill="#263238" stroke="#263238" stroke-linecap="round" stroke-linejoin="round"/>
<path d="M69.5737 168.929L74.5373 179.7C74.7155 180.085 75.0138 180.414 75.395 180.645C75.7762 180.876 76.2233 181 76.6807 181H85.7055C86.1586 180.999 86.6018 180.878 86.9809 180.651C87.3599 180.424 87.6584 180.1 87.8398 179.721L93.2547 168.277H93.02" fill="#92E3A9"/>
<mask id="mask3_46_488" style="mask-type:luminance" maskUnits="userSpaceOnUse" x="69" y="168" width="25" height="13">
<path d="M69.5737 168.929L74.5373 179.7C74.7155 180.085 75.0138 180.414 75.395 180.645C75.7762 180.876 76.2233 181 76.6807 181H85.7055C86.1586 180.999 86.6018 180.878 86.9809 180.651C87.3599 180.424 87.6584 180.1 87.8398 179.721L93.2547 168.277H93.02" fill="white"/>
</mask>
<g mask="url(#mask3_46_488)">
<path opacity="0.3" d="M80.0606 167.555C77.1998 167.555 73.8697 167.897 71.1758 167.328L75.8145 179.679C75.9249 180.038 76.1553 180.356 76.4733 180.59C76.7912 180.823 77.181 180.959 77.5879 180.979H85.0242C85.4263 180.959 85.8115 180.825 86.1267 180.596C86.442 180.367 86.6716 180.054 86.7841 179.7L91.2739 167.101L89.4689 167.328C83.7427 167.897 83.8916 167.555 80.0606 167.555Z" fill="black"/>
</g>
<path d="M69.5737 168.929L74.5373 179.7C74.7155 180.085 75.0138 180.414 75.395 180.645C75.7762 180.876 76.2233 181 76.6807 181H85.7055C86.1586 180.999 86.6018 180.878 86.9809 180.651C87.3599 180.424 87.6584 180.1 87.8398 179.721L93.2547 168.277H93.02" stroke="#263238" stroke-linecap="round" stroke-linejoin="round"/>
<path d="M159.478 1.14857L134.52 34.0353C134.52 34.0353 132.386 38.6903 129.76 42.1445C127.133 45.5987 119.769 49.0528 119.769 49.0528C119.769 49.0528 119.115 55.5072 116.981 57.7604C114.846 60.0137 110.248 58.6642 110.248 58.6642C110.248 58.6642 108.276 60.6162 106.142 61.5159C104.007 62.4155 97.442 59.114 97.442 59.114C97.442 59.114 103.349 64.97 104.17 66.922C104.991 68.874 106.471 70.5247 103.845 72.3281C101.219 74.1316 98.2587 71.5771 98.2587 71.5771C98.2587 71.5771 99.5764 75.4811 95.7995 76.2321C92.0226 76.9832 87.9074 69.4724 86.2649 66.922C84.6224 64.3716 79.8618 54.7561 79.0451 54.3063C78.2283 53.8565 77.0777 51.4546 78.7202 49.2014C80.3627 46.9481 92.0136 32.5331 93.3267 31.5055C94.6398 30.478 119.769 25.0264 119.769 25.0264L129.295 1" fill="white"/>
<mask id="mask4_46_488" style="mask-type:luminance" maskUnits="userSpaceOnUse" x="77" y="1" width="83" height="76">
<path d="M159.478 1.14857L134.52 34.0353C134.52 34.0353 132.386 38.6903 129.76 42.1445C127.133 45.5987 119.769 49.0528 119.769 49.0528C119.769 49.0528 119.115 55.5072 116.981 57.7604C114.846 60.0137 110.248 58.6642 110.248 58.6642C110.248 58.6642 108.276 60.6162 106.142 61.5159C104.007 62.4155 97.442 59.114 97.442 59.114C97.442 59.114 103.349 64.97 104.17 66.922C104.991 68.874 106.471 70.5247 103.845 72.3281C101.219 74.1316 98.2587 71.5771 98.2587 71.5771C98.2587 71.5771 99.5764 75.4811 95.7995 76.2321C92.0226 76.9832 87.9074 69.4724 86.2649 66.922C84.6224 64.3716 79.8618 54.7561 79.0451 54.3063C78.2283 53.8565 77.0777 51.4546 78.7202 49.2014C80.3627 46.9481 92.0136 32.5331 93.3267 31.5055C94.6398 30.478 119.769 25.0264 119.769 25.0264L129.295 1" fill="white"/>
</mask>
<g mask="url(#mask4_46_488)">
<path opacity="0.2" d="M131.952 34.3943C131.952 34.3943 129.245 41.8226 126.312 43.267C123.379 44.7114 106.683 48.6319 100.14 47.8065C93.597 46.9811 89.9871 44.7114 89.9871 44.7114C89.9871 44.7114 86.3772 49.0445 84.7979 50.4889C83.6982 51.423 82.3894 52.1271 80.9624 52.5524C80.9624 52.5524 88.8139 70.5907 94.4589 76.1743C94.8975 76.2982 95.3633 76.3181 95.8126 76.2321C99.5895 75.481 98.2719 71.577 98.2719 71.577C98.2719 71.577 101.227 74.1274 103.858 72.3281C106.489 70.5288 105.004 68.874 104.183 66.922C103.362 64.97 97.4326 59.114 97.4326 59.114C97.4326 59.114 103.998 62.4155 106.132 61.5158C108.267 60.6162 110.239 58.6601 110.239 58.6601C110.239 58.6601 114.837 60.0137 116.971 57.7604C119.105 55.5072 119.76 49.0528 119.76 49.0528C119.76 49.0528 127.147 45.5986 129.777 42.1445C132.408 38.6903 134.538 34.0353 134.538 34.0353L144.821 20.4869L131.952 34.3943Z" fill="black"/>
</g>
<path d="M159.478 1.14857L134.52 34.0353C134.52 34.0353 132.386 38.6903 129.76 42.1445C127.133 45.5987 119.769 49.0528 119.769 49.0528C119.769 49.0528 119.115 55.5072 116.981 57.7604C114.846 60.0137 110.248 58.6642 110.248 58.6642C110.248 58.6642 108.276 60.6162 106.142 61.5159C104.007 62.4155 97.442 59.114 97.442 59.114C97.442 59.114 103.349 64.97 104.17 66.922C104.991 68.874 106.471 70.5247 103.845 72.3282C101.219 74.1316 98.2587 71.5771 98.2587 71.5771C98.2587 71.5771 99.5764 75.4811 95.7995 76.2321C92.0226 76.9832 87.9074 69.4724 86.2649 66.922C84.6224 64.3716 79.8618 54.7561 79.0451 54.3063C78.2283 53.8565 77.0777 51.4546 78.7202 49.2014C80.3627 46.9481 92.0136 32.5331 93.3267 31.5055C94.6398 30.478 119.769 25.0264 119.769 25.0264L129.295 1" stroke="#263238" stroke-linecap="round" stroke-linejoin="round"/>
<path d="M74.1177 88.8437L74.772 91.097L84.9519 88.8437L94.4775 66.0182L88.2369 64.0662L74.1177 88.8437Z" fill="white" stroke="#263238" stroke-linecap="round" stroke-linejoin="round"/>
<path d="M77.2356 58.5115L91.3548 63.3192L84.4599 91.848L67.877 87.193L77.2356 58.5115Z" fill="white" stroke="#263238" stroke-linecap="round" stroke-linejoin="round"/>
<path d="M68.4321 85.4886L83.147 89.4463L89.55 64.0663L76.6582 60.2778L68.4321 85.4886Z" fill="#92E3A9" stroke="#263238" stroke-linecap="round" stroke-linejoin="round"/>
<path d="M76.5994 66.5547C75.959 66.3997 75.2898 66.3716 74.6365 66.4722L70.792 78.2543C71.3484 78.7502 72.033 79.1094 72.7819 79.2984C75.7962 80.0577 79.0993 77.8168 80.1552 74.2966C81.2111 70.7765 79.6092 67.3099 76.5994 66.5547Z" fill="white" stroke="#263238" stroke-linecap="round" stroke-linejoin="round"/>
<path d="M76.0532 68.5067C76.0338 68.4987 76.018 68.485 76.0082 68.4678C75.9983 68.4506 75.9951 68.4309 75.999 68.4118L76.1705 67.801C76.181 67.7753 76.1849 67.7477 76.182 67.7204C76.1791 67.6931 76.1695 67.6667 76.1539 67.6432C76.1382 67.6198 76.117 67.5999 76.0917 67.5851C76.0665 67.5702 76.0379 67.5608 76.0081 67.5575L75.2906 67.4007C75.2625 67.3903 75.2321 67.386 75.2019 67.3883C75.1717 67.3905 75.1424 67.3992 75.1166 67.4137C75.0907 67.4281 75.0688 67.4479 75.0528 67.4715C75.0368 67.495 75.0271 67.5217 75.0244 67.5493L74.8845 68.1807C74.8792 68.1996 74.8668 68.2162 74.8495 68.2275C74.8321 68.2388 74.811 68.2442 74.7897 68.2426C74.5452 68.2197 74.2987 68.2197 74.0542 68.2426L72.7411 72.2745C73.7654 73.2484 75.3628 73.7354 75.1507 74.5525C75.0289 75.0147 74.5686 75.3779 73.7609 75.2128C73.592 75.1922 73.4299 75.1385 73.2858 75.0554C73.1416 74.9724 73.0186 74.8619 72.9253 74.7315C72.832 74.6011 72.7704 74.4539 72.7449 74.2998C72.7193 74.1457 72.7303 73.9884 72.7772 73.8386L72.8178 73.6735C72.8404 73.5827 72.7817 73.5084 72.6418 73.4795L72.3666 73.4176L71.5859 75.803C71.8995 76.0636 72.2659 76.2655 72.6644 76.3972C72.6846 76.4054 72.7011 76.4197 72.711 76.4378C72.7209 76.4559 72.7236 76.4766 72.7185 76.4963L72.5561 77.0204C72.5436 77.046 72.5382 77.074 72.5401 77.102C72.5421 77.13 72.5515 77.1571 72.5675 77.1811C72.5835 77.205 72.6055 77.2251 72.6319 77.2395C72.6582 77.2539 72.6879 77.2623 72.7185 77.2639L73.4631 77.4289C73.4893 77.4416 73.5183 77.4487 73.5479 77.4496C73.5775 77.4504 73.607 77.4451 73.634 77.4339C73.661 77.4228 73.6848 77.4061 73.7037 77.3852C73.7226 77.3643 73.736 77.3397 73.7428 77.3134L73.8647 76.7934C73.8714 76.7742 73.8846 76.7574 73.9025 76.7455C73.9204 76.7336 73.9419 76.7273 73.964 76.7274C75.5523 76.8801 76.6308 76.1661 76.9647 74.895C77.2264 73.8798 76.8519 73.0173 75.6922 72.2044C74.6318 71.4698 73.5127 71.1066 73.7068 70.3555C73.8421 69.8356 74.361 69.5962 75.0605 69.7489C75.2336 69.7744 75.3986 69.8338 75.5441 69.9232C75.6897 70.0126 75.8124 70.1297 75.9037 70.2666C75.995 70.4035 76.0529 70.5568 76.0732 70.7161C76.0936 70.8753 76.076 71.0367 76.0216 71.1892L75.99 71.3047C75.99 71.3749 76.0351 71.4368 76.175 71.4698L77.4971 71.7587C77.5253 71.7682 77.5554 71.7718 77.5853 71.7692C77.6152 71.7665 77.644 71.7577 77.6697 71.7434C77.6953 71.7291 77.717 71.7097 77.7333 71.6866C77.7495 71.6635 77.7598 71.6373 77.7634 71.6101L77.8626 71.2263C78.165 70.0171 77.5287 68.9896 76.0532 68.5067Z" fill="#263238"/>
<path d="M88.8912 43.494C88.8912 43.494 90.8631 46.1971 91.1925 48.603C91.4723 50.6537 90.9479 52.7287 89.7124 54.459C88.7287 55.8085 87.745 57.0094 86.9238 59.114C86.1025 61.2187 85.9401 64.2189 84.7894 65.717C83.6388 67.215 82.9845 68.7172 84.6225 70.0708C86.2604 71.4244 90.5337 71.2717 92.835 67.3677C95.1363 63.4637 96.6118 59.2585 98.0874 57.7563C99.5629 56.2542 104.328 52.8041 104.328 52.8041C104.328 52.8041 117.297 51.1534 119.76 49.0528C122.224 46.9523 124.358 41.2449 124.358 41.2449" fill="white"/>
<mask id="mask5_46_488" style="mask-type:luminance" maskUnits="userSpaceOnUse" x="83" y="41" width="42" height="30">
<path d="M88.8912 43.494C88.8912 43.494 90.8631 46.1971 91.1925 48.603C91.4723 50.6537 90.9479 52.7287 89.7124 54.459C88.7287 55.8085 87.745 57.0094 86.9238 59.114C86.1025 61.2187 85.9401 64.2189 84.7894 65.717C83.6388 67.215 82.9845 68.7172 84.6225 70.0708C86.2604 71.4244 90.5337 71.2717 92.835 67.3677C95.1363 63.4637 96.6118 59.2585 98.0874 57.7563C99.5629 56.2542 104.328 52.8041 104.328 52.8041C104.328 52.8041 117.297 51.1534 119.76 49.0528C122.224 46.9523 124.358 41.2449 124.358 41.2449" fill="white"/>
</mask>
<g mask="url(#mask5_46_488)">
<path opacity="0.2" d="M123.379 43.267C123.379 43.267 116.385 47.3939 110.97 48.6319C105.555 49.87 102.171 49.87 100.14 52.3461C98.1099 54.8222 96.0794 62.6631 93.3719 64.1075C90.6645 65.5519 90.2133 60.3934 86.3778 61.4251L86.2514 61.4664C85.8769 63.0758 85.5475 64.7266 84.7894 65.7211C83.6388 67.2233 82.9845 68.7213 84.6225 70.0749C86.2604 71.4285 90.5337 71.2758 92.835 67.3719C95.1363 63.4679 96.6118 59.2626 98.0874 57.7605C99.5629 56.2583 104.328 52.8083 104.328 52.8083C104.328 52.8083 117.297 51.1575 119.76 49.057C121.249 47.7859 122.617 45.2025 123.465 43.3537L123.379 43.267Z" fill="black"/>
</g>
<path d="M88.8912 43.494C88.8912 43.494 90.8631 46.1971 91.1925 48.603C91.4723 50.6537 90.9479 52.7287 89.7124 54.459C88.7287 55.8085 87.745 57.0094 86.9238 59.114C86.1025 61.2187 85.9401 64.2189 84.7894 65.717C83.6388 67.215 82.9845 68.7172 84.6225 70.0708C86.2604 71.4244 90.5337 71.2717 92.835 67.3677C95.1363 63.4637 96.6118 59.2585 98.0874 57.7563C99.5629 56.2542 104.328 52.8041 104.328 52.8041C104.328 52.8041 117.297 51.1534 119.76 49.0528C122.224 46.9523 124.358 41.2449 124.358 41.2449" stroke="#263238" stroke-linecap="round" stroke-linejoin="round"/>
<path d="M83.8008 51.0048C83.8008 51.0048 88.074 53.1054 91.192 50.7036" stroke="#263238" stroke-linecap="round" stroke-linejoin="round"/>
<path d="M98.2499 71.577L94.4775 64.97" stroke="#263238" stroke-linecap="round" stroke-linejoin="round"/>
<path d="M110.239 58.6642C110.239 58.6642 113.194 56.4109 113.027 51.4546" stroke="#263238" stroke-linecap="round" stroke-linejoin="round"/>
<path d="M20.4971 180.979H199.187" stroke="#263238" stroke-linecap="round" stroke-linejoin="round"/>
<path d="M4.7041 180.979H12.8264" stroke="#263238" stroke-linecap="round" stroke-linejoin="round"/>
</svg>
