<svg width="201" height="180" viewBox="0 0 201 180" fill="none" xmlns="http://www.w3.org/2000/svg">
<path d="M201 158.181H0V158.303H201V158.181Z" fill="#EBEBEB"/>
<path d="M180.86 165.955H167.546V166.076H180.86V165.955Z" fill="#EBEBEB"/>
<path d="M133.151 167.269H129.657V167.391H133.151V167.269Z" fill="#EBEBEB"/>
<path d="M167.143 161.471H159.429V161.593H167.143V161.471Z" fill="#EBEBEB"/>
<path d="M38.4512 162.283H21.0889V162.405H38.4512V162.283Z" fill="#EBEBEB"/>
<path d="M44.5779 162.283H42.0332V162.405H44.5779V162.283Z" fill="#EBEBEB"/>
<path d="M90.5099 164.322H52.8506V164.443H90.5099V164.322Z" fill="#EBEBEB"/>
<path d="M95.2739 136.633H17.6518C17.0437 136.632 16.4608 136.341 16.0312 135.823C15.6016 135.306 15.3604 134.605 15.3604 133.874V2.73459C15.3656 2.00796 15.6093 1.31317 16.0383 0.801158C16.4673 0.289141 17.0471 0.00124477 17.6518 0H95.2739C95.8827 0 96.4666 0.290653 96.897 0.808019C97.3275 1.32539 97.5694 2.02708 97.5694 2.75875V133.874C97.5694 134.606 97.3275 135.308 96.897 135.825C96.4666 136.342 95.8827 136.633 95.2739 136.633ZM17.6518 0.0966291C17.0703 0.0979089 16.5131 0.3764 16.1023 0.870976C15.6915 1.36555 15.4609 2.0358 15.4609 2.73459V133.874C15.4609 134.573 15.6915 135.243 16.1023 135.738C16.5131 136.232 17.0703 136.511 17.6518 136.512H95.2739C95.8557 136.511 96.4134 136.233 96.8248 135.738C97.2362 135.244 97.4678 134.574 97.4689 133.874V2.73459C97.4678 2.03535 97.2362 1.36512 96.8248 0.870681C96.4134 0.376243 95.8557 0.0979062 95.2739 0.0966291H17.6518Z" fill="#EBEBEB"/>
<path d="M182.231 136.633H104.605C103.997 136.632 103.413 136.341 102.983 135.824C102.553 135.307 102.311 134.606 102.31 133.874V2.73459C102.316 2.00752 102.56 1.31274 102.99 0.800855C103.42 0.288972 104 0.00123119 104.605 0H182.231C182.835 0.00251452 183.414 0.290973 183.842 0.802853C184.27 1.31473 184.513 2.00879 184.519 2.73459V133.874C184.519 134.604 184.278 135.304 183.849 135.822C183.42 136.339 182.839 136.63 182.231 136.633ZM104.605 0.0966291C104.023 0.0979062 103.466 0.376243 103.054 0.870681C102.643 1.36512 102.411 2.03535 102.41 2.73459V133.874C102.411 134.574 102.643 135.244 103.054 135.738C103.466 136.233 104.023 136.511 104.605 136.512H182.231C182.813 136.511 183.371 136.233 183.782 135.738C184.193 135.244 184.425 134.574 184.426 133.874V2.73459C184.425 2.03535 184.193 1.36512 183.782 0.870681C183.371 0.376243 182.813 0.0979062 182.231 0.0966291H104.605Z" fill="#EBEBEB"/>
<path d="M165.893 70.1573H160.325V87.7003H165.893V70.1573Z" fill="#F0F0F0"/>
<path d="M96.0617 31.3899H52.7783V129.236H96.0617V31.3899Z" fill="#E0E0E0"/>
<path d="M94.8604 127.787V32.8393H53.989L53.989 127.787H94.8604Z" fill="#EBEBEB"/>
<path d="M90.8238 36.3807H58.0166V46.261H90.8238V36.3807Z" fill="#F5F5F5"/>
<path d="M90.8238 54.1218H58.0166V64.0021H90.8238V54.1218Z" fill="#F5F5F5"/>
<path d="M90.8238 71.8676H58.0166V81.7479H90.8238V71.8676Z" fill="#F5F5F5"/>
<path d="M90.8238 89.6135H58.0166V122.965H90.8238V89.6135Z" fill="#F5F5F5"/>
<path d="M72.6221 47.8457L74.423 50.0102L76.22 47.8457H72.6221Z" fill="#E0E0E0"/>
<path d="M72.6221 65.4321L74.423 67.5918L76.22 65.4321H72.6221Z" fill="#E0E0E0"/>
<path d="M72.6221 83.3375L74.423 85.4971L76.22 83.3375H72.6221Z" fill="#E0E0E0"/>
<path d="M157.625 23.1088H122.16V41.6518H157.625V23.1088Z" fill="#E0E0E0"/>
<path d="M156.293 24.592H123.494V40.1734H156.293V24.592Z" fill="#EBEBEB"/>
<path d="M154.601 26.9787H142.674V37.9751H154.601V26.9787Z" fill="#F5F5F5"/>
<path d="M44.7823 89.2753H35.874V77.3658L39.0177 73.5007H44.7823V89.2753Z" fill="#E0E0E0"/>
<path d="M35.874 77.3658H40.9111L44.7823 73.5007H39.0177L35.874 77.3658Z" fill="#F5F5F5"/>
<path d="M40.9111 77.3658H35.874V89.2704H40.9111V77.3658Z" fill="#E6E6E6"/>
<path d="M164.016 79.564C163.987 80.4192 163.541 81.1053 162.986 81.1053C162.432 81.1053 161.985 80.4192 161.957 79.564H159.36V91.0628H166.616V79.564H164.016Z" fill="#E0E0E0"/>
<path d="M100.499 180C143.547 180 178.443 177.551 178.443 174.531C178.443 171.51 143.547 169.062 100.499 169.062C57.4523 169.062 22.5557 171.51 22.5557 174.531C22.5557 177.551 57.4523 180 100.499 180Z" fill="#F5F5F5"/>
<path d="M43.0817 158.587C43.0817 158.587 40.4365 151.654 43.4556 144.822C46.4746 137.991 47.355 136.377 45.4294 134.976C43.5038 133.575 42.6154 140.445 42.6154 140.445C42.6154 140.445 41.0074 135.72 42.33 130.782C43.6525 125.844 44.5128 117.786 42.6837 116.921C40.8546 116.056 42.334 126.965 40.7461 130.686C39.9364 128.074 39.4134 125.347 39.1903 122.574C38.9732 118.602 39.3149 112.263 37.8677 110.635C36.4205 109.007 35.5 110.152 36.919 118.897C37.7739 124.138 38.2473 129.458 38.3341 134.797C38.3341 134.797 35.1945 123.298 33.1081 122.965C31.0217 122.632 31.0056 126.347 32.8106 129.579C34.6156 132.811 38.0688 138.58 38.6356 141.561C38.6356 141.561 35.1944 132.908 32.095 135.56C28.9956 138.213 34.7925 143.436 37.3854 145.32C39.9783 147.204 41.7631 159.046 41.7631 159.046L43.0817 158.587Z" fill="#92E3A9"/>
<path opacity="0.2" d="M43.0817 158.587C43.0817 158.587 40.4365 151.654 43.4556 144.822C46.4746 137.991 47.355 136.377 45.4294 134.976C43.5038 133.575 42.6154 140.445 42.6154 140.445C42.6154 140.445 41.0074 135.72 42.33 130.782C43.6525 125.844 44.5128 117.786 42.6837 116.921C40.8546 116.056 42.334 126.965 40.7461 130.686C39.9364 128.074 39.4134 125.347 39.1903 122.574C38.9732 118.602 39.3149 112.263 37.8677 110.635C36.4205 109.007 35.5 110.152 36.919 118.897C37.7739 124.138 38.2473 129.458 38.3341 134.797C38.3341 134.797 35.1945 123.298 33.1081 122.965C31.0217 122.632 31.0056 126.347 32.8106 129.579C34.6156 132.811 38.0688 138.58 38.6356 141.561C38.6356 141.561 35.1944 132.908 32.095 135.56C28.9956 138.213 34.7925 143.436 37.3854 145.32C39.9783 147.204 41.7631 159.046 41.7631 159.046L43.0817 158.587Z" fill="black"/>
<path d="M41.003 161.433C41.003 161.433 43.5798 154.451 40.4925 147.673C37.4051 140.894 36.5086 139.3 38.4222 137.865C40.3357 136.43 41.2844 143.281 41.2844 143.281C41.2844 143.281 42.8602 138.527 41.4733 133.618C40.0864 128.709 39.1618 120.66 40.9829 119.767C42.804 118.873 41.4331 129.806 43.0572 133.493C43.8414 130.869 44.3361 128.134 44.5285 125.356C44.7094 121.38 44.3034 115.046 45.7345 113.394C47.1657 111.741 48.0983 112.853 46.7677 121.641C45.9652 126.89 45.5456 132.214 45.5134 137.551C45.5134 137.551 48.5365 125.999 50.6389 125.627C52.7414 125.255 52.7736 128.975 51.0048 132.236C49.236 135.498 45.819 141.344 45.2763 144.315C45.2763 144.315 48.633 135.618 51.7565 138.198C54.88 140.778 49.1395 146.127 46.5787 148.059C44.018 149.992 42.3256 161.853 42.3256 161.853L41.003 161.433Z" fill="#92E3A9"/>
<path d="M52.8664 156.456H31.6006L33.3211 174.748H51.1458L52.8664 156.456Z" fill="#263238"/>
<path d="M156.273 55.1121V174.574H93.2109V121.641L99.9163 110.418L138.255 46.2609L156.273 55.1121Z" fill="#263238"/>
<path opacity="0.2" d="M156.273 55.1121V174.574H93.2109V121.641L99.9163 110.418L138.255 46.2609L156.273 55.1121Z" fill="white"/>
<path opacity="0.2" d="M128.281 110.418V174.748H93.2109V121.641L99.9163 110.418H128.281Z" fill="white"/>
<path opacity="0.2" d="M120.37 159.292H98.6982V134.555H120.37V159.292ZM99.0641 158.848H119.996V135H99.0681L99.0641 158.848Z" fill="black"/>
<path d="M140.8 44.1931H112.009C112.009 44.1931 90.5098 96.0393 90.5098 106.34V122.313C90.5098 123.152 90.7872 123.957 91.281 124.55C91.7748 125.144 92.4445 125.477 93.1429 125.477H128.716C129.062 125.477 129.404 125.395 129.723 125.236C130.043 125.077 130.333 124.844 130.578 124.55C130.822 124.256 131.016 123.908 131.149 123.524C131.281 123.14 131.349 122.728 131.349 122.313V105.929C131.349 91.9809 142.673 46.261 142.673 46.261L140.8 44.1931Z" fill="#92E3A9"/>
<path opacity="0.2" d="M125.649 125.477C126.347 125.477 127.017 125.144 127.51 124.55C128.004 123.957 128.282 123.152 128.282 122.313V106.34C128.282 92.6862 140.8 44.1931 140.8 44.1931H112.009C112.009 44.1931 90.5098 96.0393 90.5098 106.34V122.313C90.5098 123.152 90.7872 123.957 91.281 124.55C91.7748 125.144 92.4445 125.477 93.1429 125.477H125.649Z" fill="white"/>
<path opacity="0.2" d="M98.1514 90.3913H125.178L134.858 54.0927H112.089L98.1514 90.3913Z" fill="black"/>
<path opacity="0.2" d="M115.763 60.6248L112.089 54.0927H134.858L133.146 60.6248H115.763Z" fill="black"/>
<path d="M115.554 101.402H100.423L102.26 92.7201H117.391L115.554 101.402Z" fill="#263238"/>
<path opacity="0.2" d="M115.554 101.402H100.423L102.26 92.7201H117.391L115.554 101.402Z" fill="white"/>
<path d="M115.775 93.8072H103.277C103.163 93.8092 103.053 93.8584 102.966 93.9464C102.879 94.0345 102.82 94.1559 102.799 94.2903L102.457 96.0441C102.443 96.1105 102.443 96.1797 102.455 96.2464C102.467 96.3132 102.492 96.3757 102.527 96.4293C102.562 96.4828 102.607 96.526 102.658 96.5556C102.71 96.5851 102.766 96.6002 102.823 96.5998H106.099C106.155 96.5996 106.21 96.6146 106.261 96.6436C106.311 96.6726 106.356 96.7149 106.391 96.7673C106.426 96.8197 106.451 96.8809 106.464 96.9464C106.476 97.0119 106.477 97.08 106.465 97.1457L106.063 99.4696C106.051 99.535 106.052 99.6026 106.066 99.6675C106.079 99.7324 106.104 99.7929 106.139 99.8448C106.174 99.8966 106.218 99.9384 106.268 99.9671C106.318 99.9958 106.373 100.011 106.429 100.011H109.645C109.819 100.011 109.988 99.9402 110.124 99.8092C110.26 99.6783 110.355 99.4954 110.392 99.2909L110.754 97.3245C110.791 97.1191 110.885 96.9351 111.021 96.8032C111.157 96.6713 111.327 96.5995 111.502 96.5998H114.891C115.064 96.6005 115.233 96.5301 115.369 96.4001C115.505 96.2701 115.6 96.0883 115.638 95.8847L115.968 94.1695C115.978 94.1304 115.981 94.089 115.977 94.0484C115.972 94.0077 115.961 93.9687 115.942 93.9341C115.924 93.8996 115.899 93.8703 115.87 93.8483C115.842 93.8264 115.809 93.8124 115.775 93.8072Z" fill="#263238"/>
<path d="M133.146 60.6249H115.764L106.964 87.0238H126.079L133.146 60.6249Z" fill="#263238"/>
<path opacity="0.5" d="M133.146 60.6249H115.764L106.964 87.0238H126.079L133.146 60.6249Z" fill="white"/>
<path d="M132.422 63.2338H116.515L112.089 76.4478H128.78" fill="#92E3A9"/>
<path opacity="0.2" d="M114.356 76.4478L118.569 63.2338H116.515L112.089 76.4478H114.356Z" fill="black"/>
<path opacity="0.2" d="M111.128 79.564L110.292 82.3855H118.911L119.582 79.564H111.128Z" fill="black"/>
<path opacity="0.4" d="M111.108 80.6366L111.008 80.9748H118.819L118.899 80.6366H111.108Z" fill="black"/>
<path opacity="0.2" d="M128.069 79.564H123.012L122.18 82.3855H127.378" fill="black"/>
<path opacity="0.2" d="M114.971 75.7376L118.914 63.8184H130.85C130.85 63.8184 124.9 67.9686 120.422 71.5874C122.09 69.4418 123.855 67.4079 125.708 65.4949H124.1C124.1 65.4949 118.315 69.9978 114.971 75.7376Z" fill="white"/>
<path d="M98.1514 90.3913L106.963 87.0237H126.078L125.178 90.3913H98.1514Z" fill="#263238"/>
<path opacity="0.6" d="M98.1514 90.3913L106.963 87.0237H126.078L125.178 90.3913H98.1514Z" fill="white"/>
<path d="M103.977 89.2753L105.102 84.8352H114.356L115.924 87.391L113.87 89.2753H103.977Z" fill="#263238"/>
<path opacity="0.2" d="M103.977 89.2753L105.102 84.8352H114.356L115.924 87.391L113.87 89.2753H103.977Z" fill="white"/>
<path d="M104.467 89.2752L105.448 85.3907H113.379V89.2752H104.467Z" fill="#263238"/>
<path d="M124.186 51.0729C128.735 50.1982 132.294 48.5257 132.136 47.3374C131.978 46.1491 128.162 45.8949 123.613 46.7697C119.064 47.6444 115.504 49.3168 115.662 50.5051C115.821 51.6934 119.637 51.9476 124.186 51.0729Z" fill="white"/>
<path d="M115.428 56.9886L122.199 48.3264H124.633L125.579 56.9886H123.119L122.567 49.4896H123.541L118.037 56.9886H115.428ZM118.101 55.3056L119.343 53.499H123.613L123.645 55.3056H118.101ZM128.117 56.9886L130.356 50.3448H127.702L128.355 48.4239H136.096L135.442 50.3448H132.8L130.561 56.9886H128.117ZM134.126 56.9886L137.006 48.4239H138.994L140.592 54.2601H139.542L144.944 48.4239H147.031L144.175 56.9886H141.916L143.639 51.8008L144.048 51.7886L140.042 56.1444H138.968L137.691 51.7764L138.118 51.8131L136.373 56.9886H134.126Z" fill="#263238"/>
<path opacity="0.2" d="M122.939 113.403H115.654V122.158H122.939V113.403Z" fill="white"/>
<path opacity="0.2" d="M114.955 113.403H107.671V122.158H114.955V113.403Z" fill="white"/>
<path opacity="0.2" d="M96.2418 118.22H93.3916V121.646H96.2418V118.22Z" fill="white"/>
<path d="M167.943 163.1C168.026 162.896 168.067 162.672 168.061 162.446C168.056 162.22 168.006 161.999 167.914 161.802C167.823 161.604 167.693 161.436 167.535 161.312C167.378 161.188 167.198 161.112 167.011 161.09C167.169 160.511 167.177 159.888 167.034 159.303C166.89 158.719 166.602 158.201 166.207 157.819C166.112 157.716 165.992 157.653 165.865 157.64C165.728 157.655 165.598 157.723 165.495 157.833L163.316 159.713C163.141 159.842 162.993 160.019 162.886 160.23C162.44 161.264 164.044 162.592 163.385 163.452C163.196 163.699 162.89 163.747 162.653 163.935C162.134 164.322 162.074 165.182 161.849 165.868C161.624 166.554 160.764 167.071 160.442 166.443C160.679 165.795 159.96 165.24 159.373 165.158C158.786 165.076 158.167 165.037 157.853 164.375C157.021 165.25 155.164 162.814 155.208 161.834C154.525 161.897 154.058 162.665 153.91 163.433C153.812 164.242 153.789 165.062 153.841 165.878C153.817 167.467 153.391 169.023 153.415 170.612C153.435 171.844 153.817 173.217 154.774 173.714C155.241 173.916 155.738 173.997 156.233 173.951L166.954 173.869C167.213 173.893 167.472 173.841 167.71 173.719C168.193 173.415 168.297 172.651 168.341 171.999C168.534 169.197 168.726 166.396 168.916 163.597L167.943 163.1Z" fill="#92E3A9"/>
<path opacity="0.3" d="M167.943 163.1C168.026 162.896 168.067 162.672 168.061 162.446C168.056 162.22 168.006 161.999 167.914 161.802C167.823 161.604 167.693 161.436 167.535 161.312C167.378 161.188 167.198 161.112 167.011 161.09C167.169 160.511 167.177 159.888 167.034 159.303C166.89 158.719 166.602 158.201 166.207 157.819C166.112 157.716 165.992 157.653 165.865 157.64C165.728 157.655 165.598 157.723 165.495 157.833L163.316 159.713C163.141 159.842 162.993 160.019 162.886 160.23C162.44 161.264 164.044 162.592 163.385 163.452C163.196 163.699 162.89 163.747 162.653 163.935C162.134 164.322 162.074 165.182 161.849 165.868C161.624 166.554 160.764 167.071 160.442 166.443C160.679 165.795 159.96 165.24 159.373 165.158C158.786 165.076 158.167 165.037 157.853 164.375C157.021 165.25 155.164 162.814 155.208 161.834C154.525 161.897 154.058 162.665 153.91 163.433C153.812 164.242 153.789 165.062 153.841 165.878C153.817 167.467 153.391 169.023 153.415 170.612C153.435 171.844 153.817 173.217 154.774 173.714C155.241 173.916 155.738 173.997 156.233 173.951L166.954 173.869C167.213 173.893 167.472 173.841 167.71 173.719C168.193 173.415 168.297 172.651 168.341 171.999C168.534 169.197 168.726 166.396 168.916 163.597L167.943 163.1Z" fill="white"/>
<path d="M168.566 149.48H151.932L152.068 151.499L152.165 152.949L152.418 156.703L152.563 158.862L152.756 161.732L152.836 162.96L152.864 163.327L152.961 164.776L153.097 166.757L153.178 167.989L153.262 169.24L153.363 170.69L153.435 171.787L153.52 173.019L153.552 173.55H168.828L168.86 173.019L168.944 171.791L169.017 170.685L169.117 169.236L169.202 167.989L169.282 166.757L169.415 164.771L169.515 163.322L169.539 162.955L169.62 161.727L169.817 158.858L169.961 156.703L170.211 152.944L170.307 151.495L170.444 149.475L168.566 149.48ZM169.567 150.804L169.25 150.417H169.596L169.567 150.804ZM169.487 152.031L169.455 152.514L167.967 154.302L166.259 152.248L167.787 150.412H168.144L169.487 152.031ZM169.057 158.428L167.967 159.737L166.259 157.684L167.967 155.635L169.145 157.056L169.057 158.428ZM153.226 157.056L154.404 155.635L156.112 157.684L154.404 159.737L153.319 158.428L153.226 157.056ZM167.417 154.968L165.708 157.022L164.016 154.968L165.724 152.915L167.417 154.968ZM164.727 150.417H166.685L165.708 151.591L164.727 150.417ZM165.149 157.664L163.449 159.718L161.74 157.664L163.449 155.616L165.149 157.664ZM159.481 160.404L161.186 158.355L162.89 160.404L161.202 162.452L159.481 160.404ZM160.631 163.124L158.922 165.172L157.218 163.124L158.926 161.075L160.631 163.124ZM163.445 161.075L165.145 163.124L163.445 165.172L161.736 163.124L163.445 161.075ZM161.202 157.022L159.497 154.968L161.202 152.915L162.906 154.968L161.202 157.022ZM160.647 157.684L158.943 159.737L157.234 157.684L158.943 155.635L160.647 157.684ZM156.663 157.022L154.959 154.968L156.663 152.915L158.372 154.968L156.663 157.022ZM156.663 158.35L158.388 160.404L156.679 162.457L154.959 160.404L156.663 158.35ZM158.372 165.839L156.663 167.888L154.959 165.839L156.663 163.786L158.372 165.839ZM158.922 166.501L160.631 168.554L158.926 170.608L157.218 168.554L158.922 166.501ZM159.481 165.839L161.202 163.786L162.906 165.839L161.202 167.888L159.481 165.839ZM163.449 166.501L165.149 168.554L163.449 170.608L161.74 168.554L163.449 166.501ZM165.708 169.216L167.417 171.27L166.307 172.598H165.101L164.016 171.27L165.708 169.216ZM164 165.834L165.708 163.781L167.417 165.834L165.708 167.883L164 165.834ZM164.016 160.404L165.724 158.355L167.433 160.404L165.724 162.457L164.016 160.404ZM165.165 152.258L163.465 154.311L161.757 152.258L163.284 150.422H163.614L165.165 152.258ZM161.202 151.591L160.225 150.417H162.179L161.202 151.591ZM160.647 152.253L158.943 154.306L157.234 152.253L158.766 150.417H159.123L160.647 152.253ZM157.656 150.417L156.679 151.591L155.706 150.417H157.656ZM154.601 150.417L156.129 152.253L154.42 154.306L152.937 152.519L152.904 152.036L154.243 150.422L154.601 150.417ZM153.138 150.417L152.824 150.799L152.796 150.417H153.138ZM153.033 153.963L153.869 154.968L153.162 155.823L153.033 153.963ZM153.499 160.848L153.431 159.882L153.869 160.404L153.499 160.853V160.848ZM153.58 162.085L154.42 161.07L156.129 163.119L154.42 165.167L153.733 164.341L153.58 162.085ZM153.833 165.878V165.791L153.873 165.839L153.837 165.878H153.833ZM154.131 170.255L153.918 167.105L154.42 166.501L156.129 168.554L154.42 170.603L154.131 170.255ZM154.287 172.598L154.255 172.115L154.42 171.917L154.975 172.584L154.287 172.598ZM154.975 171.27L156.679 169.216L158.388 171.27L157.282 172.598H156.076L154.975 171.27ZM158.388 172.598L158.943 171.931L159.497 172.598H158.388ZM160.603 172.598L159.497 171.27L161.202 169.216L162.906 171.27L161.805 172.598H160.603ZM162.906 172.598L163.465 171.931L164.02 172.598H162.906ZM168.132 172.598H167.445L168 171.931L168.164 172.13L168.132 172.598ZM168.293 170.255L168 170.603L166.291 168.554L168 166.501L168.502 167.105L168.293 170.255ZM168.591 165.786V165.878L168.558 165.839L168.599 165.786H168.591ZM168.691 164.336L168 165.163L166.291 163.114L168 161.066L168.844 162.08L168.691 164.336ZM168.924 160.848L168.55 160.394L168.993 159.872L168.924 160.848ZM169.39 153.954L169.266 155.823L168.55 154.963L169.39 153.954Z" fill="#92E3A9"/>
<g opacity="0.6">
<path d="M168.566 149.48H151.932L152.068 151.499L152.165 152.949L152.418 156.703L152.563 158.862L152.756 161.732L152.836 162.96L152.864 163.327L152.961 164.776L153.097 166.757L153.178 167.989L153.262 169.24L153.363 170.69L153.435 171.787L153.52 173.019L153.552 173.55H168.828L168.86 173.019L168.944 171.791L169.017 170.685L169.117 169.236L169.202 167.989L169.282 166.757L169.415 164.771L169.515 163.322L169.539 162.955L169.62 161.727L169.817 158.858L169.961 156.703L170.211 152.944L170.307 151.495L170.444 149.475L168.566 149.48ZM169.567 150.804L169.25 150.417H169.596L169.567 150.804ZM169.487 152.031L169.455 152.514L167.967 154.302L166.259 152.248L167.787 150.412H168.144L169.487 152.031ZM169.057 158.428L167.967 159.737L166.259 157.684L167.967 155.635L169.145 157.056L169.057 158.428ZM153.226 157.056L154.404 155.635L156.112 157.684L154.404 159.737L153.319 158.428L153.226 157.056ZM167.417 154.968L165.708 157.022L164.016 154.968L165.724 152.915L167.417 154.968ZM164.727 150.417H166.685L165.708 151.591L164.727 150.417ZM165.149 157.664L163.449 159.718L161.74 157.664L163.449 155.616L165.149 157.664ZM159.481 160.404L161.186 158.355L162.89 160.404L161.202 162.452L159.481 160.404ZM160.631 163.124L158.922 165.172L157.218 163.124L158.926 161.075L160.631 163.124ZM163.445 161.075L165.145 163.124L163.445 165.172L161.736 163.124L163.445 161.075ZM161.202 157.022L159.497 154.968L161.202 152.915L162.906 154.968L161.202 157.022ZM160.647 157.684L158.943 159.737L157.234 157.684L158.943 155.635L160.647 157.684ZM156.663 157.022L154.959 154.968L156.663 152.915L158.372 154.968L156.663 157.022ZM156.663 158.35L158.388 160.404L156.679 162.457L154.959 160.404L156.663 158.35ZM158.372 165.839L156.663 167.888L154.959 165.839L156.663 163.786L158.372 165.839ZM158.922 166.501L160.631 168.554L158.926 170.608L157.218 168.554L158.922 166.501ZM159.481 165.839L161.202 163.786L162.906 165.839L161.202 167.888L159.481 165.839ZM163.449 166.501L165.149 168.554L163.449 170.608L161.74 168.554L163.449 166.501ZM165.708 169.216L167.417 171.27L166.307 172.598H165.101L164.016 171.27L165.708 169.216ZM164 165.834L165.708 163.781L167.417 165.834L165.708 167.883L164 165.834ZM164.016 160.404L165.724 158.355L167.433 160.404L165.724 162.457L164.016 160.404ZM165.165 152.258L163.465 154.311L161.757 152.258L163.284 150.422H163.614L165.165 152.258ZM161.202 151.591L160.225 150.417H162.179L161.202 151.591ZM160.647 152.253L158.943 154.306L157.234 152.253L158.766 150.417H159.123L160.647 152.253ZM157.656 150.417L156.679 151.591L155.706 150.417H157.656ZM154.601 150.417L156.129 152.253L154.42 154.306L152.937 152.519L152.904 152.036L154.243 150.422L154.601 150.417ZM153.138 150.417L152.824 150.799L152.796 150.417H153.138ZM153.033 153.963L153.869 154.968L153.162 155.823L153.033 153.963ZM153.499 160.848L153.431 159.882L153.869 160.404L153.499 160.853V160.848ZM153.58 162.085L154.42 161.07L156.129 163.119L154.42 165.167L153.733 164.341L153.58 162.085ZM153.833 165.878V165.791L153.873 165.839L153.837 165.878H153.833ZM154.131 170.255L153.918 167.105L154.42 166.501L156.129 168.554L154.42 170.603L154.131 170.255ZM154.287 172.598L154.255 172.115L154.42 171.917L154.975 172.584L154.287 172.598ZM154.975 171.27L156.679 169.216L158.388 171.27L157.282 172.598H156.076L154.975 171.27ZM158.388 172.598L158.943 171.931L159.497 172.598H158.388ZM160.603 172.598L159.497 171.27L161.202 169.216L162.906 171.27L161.805 172.598H160.603ZM162.906 172.598L163.465 171.931L164.02 172.598H162.906ZM168.132 172.598H167.445L168 171.931L168.164 172.13L168.132 172.598ZM168.293 170.255L168 170.603L166.291 168.554L168 166.501L168.502 167.105L168.293 170.255ZM168.591 165.786V165.878L168.558 165.839L168.599 165.786H168.591ZM168.691 164.336L168 165.163L166.291 163.114L168 161.066L168.844 162.08L168.691 164.336ZM168.924 160.848L168.55 160.394L168.993 159.872L168.924 160.848ZM169.39 153.954L169.266 155.823L168.55 154.963L169.39 153.954Z" fill="white"/>
</g>
<path d="M151.658 151.258H170.709C171.149 151.258 171.505 150.829 171.505 150.301V149.601C171.505 149.072 171.149 148.644 170.709 148.644H151.658C151.219 148.644 150.862 149.072 150.862 149.601V150.301C150.862 150.829 151.219 151.258 151.658 151.258Z" fill="#92E3A9"/>
<path d="M169.221 172.13H153.149C152.71 172.13 152.354 172.558 152.354 173.086V173.787C152.354 174.315 152.71 174.743 153.149 174.743H169.221C169.661 174.743 170.017 174.315 170.017 173.787V173.086C170.017 172.558 169.661 172.13 169.221 172.13Z" fill="#92E3A9"/>
<path d="M80.2232 24.104H68.1351C67.4623 24.104 66.917 24.7594 66.917 25.5679V40.0961C66.917 40.9046 67.4623 41.56 68.1351 41.56H80.2232C80.8959 41.56 81.4412 40.9046 81.4412 40.0961V25.5679C81.4412 24.7594 80.8959 24.104 80.2232 24.104Z" fill="#92E3A9"/>
<path d="M72.5127 40.0091C72.5127 40.0091 73.2564 44.9275 78.6633 47.1451C78.6633 47.1451 75.588 43.5795 75.588 40.0091H72.5127Z" fill="#92E3A9"/>
<path d="M74.6836 36.5885V37.8302H73.9117V36.5981C73.0865 36.5728 72.2861 36.2533 71.6123 35.6802L72.0344 34.5593C72.5826 35.0447 73.2329 35.3359 73.9117 35.3999V33.1871C72.8706 32.8876 71.753 32.4866 71.753 30.9454C71.753 29.8148 72.4485 28.8292 73.9117 28.6649V27.4136H74.6836V28.6408C75.3551 28.6762 76.0093 28.9085 76.5891 29.3172L76.1871 30.4381C75.7198 30.116 75.2027 29.9121 74.6675 29.839V32.0759C75.7087 32.3755 76.8463 32.762 76.8463 34.3032C76.8624 35.4338 76.1589 36.4097 74.6836 36.5885ZM73.9117 31.844V29.8728C73.2444 29.9936 72.963 30.3946 72.963 30.8825C72.963 31.3705 73.369 31.6556 73.9117 31.844ZM75.6604 34.4047C75.6604 33.8635 75.2584 33.6075 74.6836 33.4384V35.3999C75.367 35.2695 75.6604 34.883 75.6604 34.4047Z" fill="white"/>
<path d="M71.5798 83.1008C71.0773 82.9317 68.006 90.348 68.0583 91.0485C68.1105 91.7491 72.2431 92.2805 72.2431 92.2805L71.5798 83.1008Z" fill="#92E3A9"/>
<path opacity="0.4" d="M71.5798 83.1008C71.0773 82.9317 68.006 90.348 68.0583 91.0485C68.1105 91.7491 72.2431 92.2805 72.2431 92.2805L71.5798 83.1008Z" fill="black"/>
<path d="M71.5797 83.1008C71.5797 83.1008 67.9617 93.9571 68.8783 96.5032C69.7948 99.0494 80.7011 99.117 81.8669 98.9189C83.0327 98.7209 83.7804 85.3378 83.7804 85.3378C79.6578 85.1285 75.5667 84.3784 71.5797 83.1008Z" fill="#92E3A9"/>
<path opacity="0.2" d="M71.5797 83.1008C71.5797 83.1008 67.9617 93.9571 68.8783 96.5032C69.7948 99.0494 80.7011 99.117 81.8669 98.9189C83.0327 98.7209 83.7804 85.3378 83.7804 85.3378C79.6578 85.1285 75.5667 84.3784 71.5797 83.1008Z" fill="black"/>
<path d="M79.0125 68.8094C78.8156 69.0268 78.5462 69.3361 78.309 69.6114C78.0719 69.8868 77.8266 70.1864 77.5895 70.4859C77.1231 71.085 76.6528 71.689 76.2106 72.3219C75.328 73.569 74.5218 74.8914 73.7986 76.2788L73.5413 76.8006L73.4127 77.0615L73.3484 77.192C73.3693 77.1005 73.3814 77.0065 73.3845 76.9117C73.3912 76.7638 73.379 76.6156 73.3484 76.4721C73.3061 76.2571 73.2251 76.056 73.1112 75.8826C72.966 75.6515 72.7632 75.4822 72.5323 75.3995C72.4318 75.3705 72.4117 75.3995 72.4117 75.3995C72.634 75.4425 72.8607 75.4425 73.083 75.3995C73.3886 75.3609 73.7182 75.2932 74.0519 75.2111C75.3945 74.8777 76.8136 74.4187 78.2085 73.9936L78.9442 75.9986C77.6545 76.9832 76.2912 77.8211 74.8719 78.5013C74.5021 78.6704 74.1242 78.8347 73.7102 78.9844C73.2212 79.161 72.7133 79.2506 72.2027 79.2502C71.9796 79.2423 71.7582 79.2018 71.5434 79.1294C71.2052 79.0151 70.8985 78.7946 70.6548 78.4906C70.411 78.1866 70.239 77.8101 70.1565 77.3997C70.109 77.1479 70.0927 76.889 70.1082 76.6315C70.1274 76.3164 70.187 76.0067 70.2851 75.7136L70.3856 75.4333L70.4499 75.2739L70.5746 74.9502L70.8359 74.3076C71.5594 72.6292 72.4141 71.0373 73.3886 69.5535C73.875 68.8239 74.3775 68.104 74.9202 67.4325C75.1895 67.0894 75.4669 66.7561 75.7483 66.4275C76.0297 66.099 76.3111 65.7994 76.6649 65.4612L79.0125 68.8094Z" fill="#E9B376"/>
<path d="M76.3998 64.5335C75.1426 65.4479 74.1125 66.751 73.417 68.3069L77.0752 73.1383C77.0752 73.1383 81.3766 60.9583 76.3998 64.5335Z" fill="#92E3A9"/>
<path opacity="0.6" d="M78.2128 69.2974C77.8871 70.5949 77.5074 71.872 77.0752 73.1239L75.5717 71.143L73.417 68.3069C74.1125 66.7511 75.1426 65.448 76.3998 64.5336C79.4591 62.3256 79.0128 66.0845 78.2128 69.2974Z" fill="white"/>
<path opacity="0.2" d="M78.2124 69.2974C77.8867 70.5949 77.507 71.872 77.0748 73.1239L75.5713 71.143C76.0813 69.9757 76.9002 69.0458 77.8989 68.5002C78.0237 68.7537 78.1286 69.0206 78.2124 69.2974Z" fill="black"/>
<path d="M94.0232 49.9281C94.0232 49.9281 97.9025 65.4274 89.7339 67.5049C81.5652 69.5824 80.709 62.4512 80.709 62.4512C80.709 62.4512 87.3983 50.247 94.0232 49.9281Z" fill="#263238"/>
<path d="M95.7716 53.5614C95.7589 53.5617 95.7463 53.5589 95.7345 53.5531C95.7228 53.5472 95.7121 53.5386 95.7033 53.5276C95.5449 53.3441 95.3545 53.2055 95.1458 53.1219C94.9371 53.0383 94.7156 53.0118 94.4973 53.0444C94.4733 53.0473 94.4492 53.0398 94.4294 53.0231C94.4097 53.0064 94.3956 52.9817 94.3897 52.9536C94.3839 52.9254 94.3866 52.8957 94.3975 52.8698C94.4084 52.8439 94.4267 52.8236 94.449 52.8125C94.7006 52.7637 94.9581 52.7864 95.201 52.8787C95.4439 52.971 95.6655 53.1303 95.848 53.344C95.8612 53.3611 95.87 53.3825 95.8733 53.4055C95.8767 53.4286 95.8743 53.4522 95.8667 53.4737C95.859 53.4952 95.8464 53.5135 95.8302 53.5265C95.814 53.5395 95.7951 53.5466 95.7756 53.5469L95.7716 53.5614Z" fill="#263238"/>
<path d="M95.1691 55.8129C95.3717 56.3689 95.6281 56.8943 95.9329 57.3782C95.8373 57.5169 95.7114 57.6206 95.5693 57.6778C95.4272 57.735 95.2747 57.7434 95.1289 57.702L95.1691 55.8129Z" fill="#D58745"/>
<path d="M95.7519 54.8852C95.7519 55.1799 95.5911 55.407 95.4303 55.3973C95.2695 55.3876 95.1489 55.1364 95.161 54.8417C95.173 54.547 95.3178 54.3199 95.4826 54.3585C95.6474 54.3972 95.764 54.5953 95.7519 54.8852Z" fill="#263238"/>
<path d="M95.4141 54.3441L95.9568 54.1315C95.9568 54.1315 95.6754 54.6485 95.4141 54.3441Z" fill="#263238"/>
<path d="M88.4835 60.3544C88.5085 60.3917 88.5368 60.4257 88.5679 60.4558C88.9804 60.9521 89.4692 61.3476 90.007 61.6202C91.5869 62.3401 92.7326 62.258 93.5607 61.4898C94.7346 60.3302 95.2572 58.0111 95.4421 55.1461C95.5436 54.0171 95.4975 52.8759 95.3054 51.7641C95.3054 51.7641 95.3054 51.7206 95.3054 51.7109L95.2813 51.5853C95.1506 50.9504 94.8897 50.3649 94.5225 49.8821C94.1553 49.3994 93.6933 49.0349 93.1788 48.8217C92.7329 48.6232 92.2707 48.4823 91.8 48.4014C87.193 47.5559 85.3117 56.6004 88.4835 60.3544Z" fill="#EBB376"/>
<path opacity="0.2" d="M88.5674 60.4558C88.9861 60.9283 89.4777 61.2976 90.0146 61.5429C91.5944 62.2628 92.7482 62.1178 93.5803 61.3352C92.5711 61.4649 91.5544 61.1934 90.6859 60.5621C90.3624 60.3533 90.0037 60.2353 89.6368 60.2169C89.2699 60.1985 88.9043 60.2802 88.5674 60.4558Z" fill="black"/>
<path d="M95.3135 51.6965C95.3135 51.6965 95.1246 55.6293 91.8644 56.7888C91.8644 56.7888 90.0875 60.6105 88.1418 60.3496C85.4886 59.9872 83.6796 55.0833 85.1228 50.6336C86.9921 44.8648 94.5738 45.6234 95.3135 51.6965Z" fill="#263238"/>
<path d="M93.5447 55.9384C93.6131 55.3297 93.3277 54.2426 92.5237 54.2523C91.7197 54.2619 90.9719 56.5907 92.9257 57.4603C93.1829 57.586 93.404 57.2043 93.5447 55.9384Z" fill="#EBB376"/>
<path d="M90.1519 46.6379C90.1519 46.6379 93.3679 46.2079 94.8834 47.9811C96.6764 50.0538 97.2271 51.9815 94.5458 54.3876C94.5458 54.3876 89.5931 51.5129 87.8203 51.653C86.7861 51.7333 85.7589 51.9142 84.749 52.1941C84.8576 48.0197 88.5278 45.5074 90.1519 46.6379Z" fill="#263238"/>
<path d="M90.8196 61.4124C90.8196 61.4124 89.2116 63.9199 89.4046 66.9589L81.7666 64.8766C81.7666 64.8766 86.4539 61.5815 86.7112 58.9097C86.7152 58.9097 90.2166 58.1367 90.8196 61.4124Z" fill="#EBB376"/>
<path d="M75.4385 87.0288C77.9671 87.5747 83.3378 87.3187 88.5316 88.4782C94.7184 68.0122 93.2109 68.5968 93.2109 68.5968C93.2109 68.5968 91.9245 66.529 90.2642 65.8043L90.0874 65.727C89.2512 65.3839 89.0743 65.3308 87.9527 64.9684C86.0231 64.4563 84.2302 64.036 82.0072 63.6736L81.5851 63.6108C81.1831 63.5528 80.7811 63.5045 80.3791 63.4659C80.1218 63.432 79.8605 63.4127 79.6153 63.3934L78.767 63.3402C78.3216 63.3367 77.8802 63.4429 77.4702 63.6523C77.0602 63.8617 76.6902 64.1698 76.3832 64.5578C77.151 77.3031 76.5319 81.1248 75.4385 87.0288Z" fill="#92E3A9"/>
<path opacity="0.6" d="M93.0908 71.4087C92.3853 74.8744 91.5292 78.2933 90.526 81.6514C89.9753 83.6081 89.32 85.8595 88.516 88.4492C83.3222 87.3138 77.9514 87.5699 75.4229 86.9998C76.5163 81.0958 77.1354 77.2741 76.3836 64.5046C76.6907 64.1167 77.0606 63.8085 77.4706 63.5991C77.8806 63.3897 78.322 63.2835 78.7675 63.2871L79.6157 63.3402C79.8609 63.3402 80.1222 63.3789 80.3795 63.4127C80.7815 63.4513 81.1634 63.4997 81.5855 63.5576L82.0076 63.6204C84.2307 63.9828 86.0276 64.4031 87.9532 64.9153C89.0748 65.2776 89.2517 65.3308 90.0878 65.6738L90.2647 65.7511C91.925 66.4758 93.2114 68.5437 93.2114 68.5437C93.2114 68.5437 93.6656 68.4036 93.0908 71.4087Z" fill="white"/>
<path opacity="0.2" d="M93.0904 71.4088C92.3849 74.8745 91.5288 78.2934 90.5256 81.6514C89.9398 80.5288 89.5743 79.2607 89.4566 77.9432C89.3389 76.6256 89.4721 75.2932 89.8462 74.0467C90.3648 72.346 91.6552 71.6213 93.0904 71.4088Z" fill="black"/>
<path d="M93.5093 69.9641C93.7585 71.0174 94.0238 72.1576 94.3133 73.2447C94.6027 74.3317 94.8881 75.443 95.2057 76.5252C95.5233 77.6074 95.8569 78.6849 96.2107 79.7429C96.3836 80.2744 96.5725 80.7962 96.7574 81.3228C96.8459 81.5837 96.9464 81.8398 97.0428 82.0958L97.1916 82.4824L97.2599 82.6708C97.2599 82.6708 97.2599 82.6708 97.2599 82.7143C97.4019 82.9837 97.5896 83.2142 97.8107 83.3907C98.1394 83.6712 98.4878 83.9169 98.8518 84.125C99.6753 84.5951 100.526 84.9939 101.396 85.3184C103.185 85.9996 105.091 86.5649 106.968 87.0432L106.799 89.2319C104.757 89.2214 102.72 88.9885 100.713 88.5362C99.6665 88.3005 98.6379 87.9612 97.6378 87.5215C97.0902 87.2746 96.5616 86.9707 96.0579 86.6132C95.429 86.1762 94.8871 85.5793 94.47 84.8643C94.4055 84.7559 94.3465 84.6429 94.2932 84.5261L94.2007 84.3183L94.0158 83.9076C93.8912 83.6371 93.7665 83.3617 93.65 83.0863C93.4128 82.5403 93.1877 81.9847 92.9746 81.4243C92.5404 80.313 92.1384 79.1825 91.7686 78.0423C91.3988 76.9021 91.053 75.7522 90.7435 74.5926C90.434 73.4331 90.1485 72.2832 89.9033 71.0367L93.5093 69.9641Z" fill="#E9B376"/>
<path d="M106.381 87.338L108.749 86.1978L109.151 88.884C109.151 88.884 107.012 90.4398 106.124 88.5893L106.381 87.338Z" fill="#EBB376"/>
<path d="M109.922 86.362L110.682 88.4395L109.15 88.884L108.748 86.1978L109.922 86.362Z" fill="#EBB376"/>
<path d="M91.9735 67.2585C94.0116 68.8625 95.3141 72.4233 95.6598 74.467L90.9243 79.1052C90.9243 79.1052 88.3434 72.1817 89.1916 70.4086C90.0399 68.6355 91.2016 66.6739 91.9735 67.2585Z" fill="#92E3A9"/>
<path d="M98.739 170.753L100.902 170.067C100.098 156.954 97.9712 141.126 96.1501 129.26C95.8647 127.4 95.5873 125.642 95.322 124.004L94.9602 121.757C94.3813 118.196 93.8949 115.389 93.5894 113.65C93.3683 112.384 93.2437 111.688 93.2437 111.688L85.4609 114.399L86.1082 116.757L88.2468 124.535L88.492 125.424L89.9071 130.56L92.3191 139.305C92.6447 152.673 98.739 170.753 98.739 170.753Z" fill="#EBB376"/>
<path d="M79.8685 170.12L82.1036 169.859C83.2694 155.635 83.3096 137.928 83.1569 125.622C83.1287 123.714 83.1006 121.936 83.0724 120.308C83.0724 120.221 83.0724 120.143 83.0724 120.066C83.0081 116.863 82.9398 114.317 82.8915 112.703L82.8232 110.77L74.7832 111.853L75.2857 115.877L76.0173 121.796L76.1621 122.95L76.6646 126.985L77.9871 137.788C76.4234 151.04 79.8685 170.12 79.8685 170.12Z" fill="#EBB376"/>
<path opacity="0.2" d="M75.9976 121.791L83.0728 120.342C83.0728 120.255 83.0728 120.177 83.0728 120.1C83.0085 116.897 82.9401 114.351 82.8919 112.737L75.2539 115.892L75.9976 121.791Z" fill="black"/>
<path opacity="0.2" d="M94.3692 118.177L86.9241 119.694L86.1201 116.732L93.5973 113.626C93.7822 114.732 94.0677 116.278 94.3692 118.177Z" fill="black"/>
<path d="M75.0811 86.2992C75.0811 86.2992 70.2571 99.8562 74.7636 119.515C74.7636 119.515 77.26 120.544 83.5593 119.424C87.2363 118.715 90.8335 117.503 94.2807 115.81C91.5712 99.8659 89.127 92.6187 89.127 92.6187L89.0185 88.1351L75.0811 86.2992Z" fill="#263238"/>
<path d="M78.7919 169.583C78.7919 169.25 82.2491 169.511 82.2491 169.511C82.2491 169.511 84.3716 172.105 86.4339 172.69C88.4962 173.275 87.3424 174.763 85.039 174.763H79.3547C77.7145 174.748 78.7396 173.072 78.7919 169.583Z" fill="#263238"/>
<path d="M84.0816 170.55C83.5825 170.477 83.098 170.298 82.6504 170.023C82.6374 170.018 82.6261 170.008 82.6183 169.994C82.6103 169.966 82.6103 169.935 82.6183 169.907C82.6183 169.869 82.9198 168.897 83.3901 168.666C83.4602 168.627 83.5363 168.607 83.6132 168.607C83.6902 168.607 83.7663 168.627 83.8363 168.666C83.9931 168.757 84.0695 168.873 84.0615 169.013C84.0615 169.231 83.8042 169.453 83.5268 169.632C83.7869 169.579 84.0543 169.614 84.2986 169.733C84.3441 169.762 84.384 169.802 84.4159 169.85C84.4477 169.898 84.4708 169.954 84.4836 170.014C84.5096 170.088 84.5154 170.171 84.5003 170.25C84.4851 170.329 84.4497 170.4 84.3991 170.453C84.3066 170.531 84.1937 170.565 84.0816 170.55ZM82.964 169.956C83.4745 170.212 84.1057 170.439 84.2705 170.284C84.2705 170.284 84.3268 170.226 84.2906 170.062C84.2833 170.031 84.271 170.003 84.2544 169.978C84.2378 169.953 84.2174 169.932 84.1941 169.917C83.9449 169.757 83.3539 169.864 82.964 169.965V169.956ZM83.5831 168.815C83.5347 168.815 83.4868 168.826 83.4424 168.849C83.1717 169.062 82.9646 169.374 82.8514 169.738C83.362 169.506 83.8564 169.183 83.8645 168.999C83.8645 168.941 83.7881 168.888 83.7399 168.859C83.6903 168.834 83.6368 168.822 83.5831 168.825V168.815Z" fill="#92E3A9"/>
<path d="M98.124 169.583C98.124 169.25 101.581 169.511 101.581 169.511C101.581 169.511 103.704 172.105 105.766 172.69C107.828 173.275 106.675 174.763 104.371 174.763H98.6707C97.0305 174.748 98.0556 173.072 98.124 169.583Z" fill="#263238"/>
<path d="M103.398 170.55C102.899 170.477 102.414 170.298 101.967 170.023C101.954 170.018 101.943 170.008 101.935 169.994C101.927 169.966 101.927 169.935 101.935 169.907C101.935 169.869 102.236 168.897 102.707 168.666C102.777 168.627 102.853 168.607 102.93 168.607C103.007 168.607 103.083 168.627 103.153 168.666C103.31 168.757 103.386 168.873 103.378 169.013C103.378 169.231 103.121 169.453 102.843 169.632C103.103 169.579 103.371 169.614 103.615 169.733C103.66 169.762 103.7 169.802 103.732 169.85C103.764 169.898 103.787 169.954 103.8 170.014C103.826 170.088 103.832 170.171 103.817 170.25C103.802 170.329 103.766 170.4 103.716 170.453C103.623 170.531 103.51 170.565 103.398 170.55ZM102.28 169.956C102.791 170.212 103.422 170.439 103.587 170.284C103.587 170.284 103.643 170.226 103.607 170.062C103.6 170.031 103.587 170.003 103.571 169.978C103.554 169.953 103.534 169.932 103.511 169.917C103.261 169.757 102.67 169.864 102.28 169.965V169.956ZM102.899 168.815C102.851 168.815 102.803 168.826 102.759 168.849C102.488 169.062 102.281 169.374 102.168 169.738C102.678 169.506 103.173 169.183 103.181 168.999C103.181 168.941 103.104 168.888 103.056 168.859C103.01 168.836 102.961 168.824 102.912 168.825L102.899 168.815Z" fill="#92E3A9"/>
<path d="M78.0635 89.3816L85.4804 90.3141V88.2897L78.2806 87.449C78.2243 87.9322 78.1318 88.7294 78.0635 89.3816Z" fill="black"/>
<path d="M86.0596 88.3526V90.3818L89.1308 90.7683V88.715L86.0596 88.3526Z" fill="black"/>
<path d="M77.6901 87.3573L74.5706 86.9853L74.1807 88.8889L77.3967 89.2899L77.6901 87.3573Z" fill="black"/>
<path opacity="0.6" d="M91.9735 67.2585C94.0116 68.8625 95.3141 72.4233 95.6598 74.467L90.9243 79.1052C90.9243 79.1052 88.3434 72.1817 89.1916 70.4086C90.0399 68.6355 91.2016 66.6739 91.9735 67.2585Z" fill="white"/>
<path d="M79.9091 62.8957C79.9091 62.8957 76.5404 67.1087 72.0058 84.4197L71.2822 84.2023C71.2822 84.2023 76.1062 64.4756 79.9091 62.8957Z" fill="#92E3A9"/>
<path d="M91.8649 56.7936C91.8649 56.7936 91.8891 62.4174 87.8248 64.2823C83.7606 66.1473 86.2972 72.2155 81.7707 71.5005C79.3587 71.1188 75.9337 64.8766 81.7707 59.3784C85.1757 56.1752 81.1275 45.6475 90.1524 46.6379C90.1524 46.6379 89.9997 53.8512 91.8649 56.7936Z" fill="#263238"/>
</svg>
